<mxfile host="app.diagrams.net" modified="2021-08-11T08:24:29.746Z" agent="5.0 (Windows NT 6.1; Win64; x64) AppleWebKit/537.36 (KHTML, like Gecko) Chrome/92.0.4515.131 Safari/537.36" etag="JDYledmZJqJGoGD_0ZvK" version="14.9.0" type="github">
  <diagram id="-HY0pViwch3TtxszQ90N" name="Page-1">
    <mxGraphModel dx="782" dy="425" grid="1" gridSize="10" guides="1" tooltips="1" connect="1" arrows="1" fold="1" page="1" pageScale="1" pageWidth="2339" pageHeight="3300" math="0" shadow="0">
      <root>
        <mxCell id="0" />
        <mxCell id="1" parent="0" />
        <mxCell id="3Jr1gEqklFS7zzRCALNh-3" style="edgeStyle=orthogonalEdgeStyle;rounded=0;orthogonalLoop=1;jettySize=auto;html=1;entryX=0.5;entryY=0;entryDx=0;entryDy=0;" edge="1" parent="1" source="3Jr1gEqklFS7zzRCALNh-1" target="3Jr1gEqklFS7zzRCALNh-2">
          <mxGeometry relative="1" as="geometry" />
        </mxCell>
        <mxCell id="3Jr1gEqklFS7zzRCALNh-1" value="开始" style="rounded=1;whiteSpace=wrap;html=1;" vertex="1" parent="1">
          <mxGeometry x="370" y="90" width="120" height="60" as="geometry" />
        </mxCell>
        <mxCell id="3Jr1gEqklFS7zzRCALNh-5" style="edgeStyle=orthogonalEdgeStyle;rounded=0;orthogonalLoop=1;jettySize=auto;html=1;" edge="1" parent="1" source="3Jr1gEqklFS7zzRCALNh-2" target="3Jr1gEqklFS7zzRCALNh-4">
          <mxGeometry relative="1" as="geometry" />
        </mxCell>
        <mxCell id="3Jr1gEqklFS7zzRCALNh-2" value="&#xa;&#xa;&lt;span style=&quot;color: rgb(0, 0, 0); font-family: helvetica; font-size: 12px; font-style: normal; font-weight: 400; letter-spacing: normal; text-align: center; text-indent: 0px; text-transform: none; word-spacing: 0px; background-color: rgb(248, 249, 250); display: inline; float: none;&quot;&gt;解析format.json&lt;/span&gt;&#xa;&#xa;" style="rhombus;whiteSpace=wrap;html=1;" vertex="1" parent="1">
          <mxGeometry x="380" y="190" width="100" height="100" as="geometry" />
        </mxCell>
        <mxCell id="3Jr1gEqklFS7zzRCALNh-9" style="edgeStyle=orthogonalEdgeStyle;rounded=0;orthogonalLoop=1;jettySize=auto;html=1;entryX=0.5;entryY=0;entryDx=0;entryDy=0;" edge="1" parent="1" source="3Jr1gEqklFS7zzRCALNh-4" target="3Jr1gEqklFS7zzRCALNh-8">
          <mxGeometry relative="1" as="geometry" />
        </mxCell>
        <mxCell id="3Jr1gEqklFS7zzRCALNh-4" value="轮询g_event_info_list" style="rounded=0;whiteSpace=wrap;html=1;" vertex="1" parent="1">
          <mxGeometry x="370" y="330" width="120" height="60" as="geometry" />
        </mxCell>
        <mxCell id="3Jr1gEqklFS7zzRCALNh-6" value="success" style="text;html=1;align=center;verticalAlign=middle;resizable=0;points=[];autosize=1;strokeColor=none;" vertex="1" parent="1">
          <mxGeometry x="430" y="300" width="60" height="20" as="geometry" />
        </mxCell>
        <mxCell id="3Jr1gEqklFS7zzRCALNh-14" style="edgeStyle=orthogonalEdgeStyle;rounded=0;orthogonalLoop=1;jettySize=auto;html=1;entryX=0;entryY=0.5;entryDx=0;entryDy=0;" edge="1" parent="1" source="3Jr1gEqklFS7zzRCALNh-8" target="3Jr1gEqklFS7zzRCALNh-4">
          <mxGeometry relative="1" as="geometry">
            <Array as="points">
              <mxPoint x="340" y="505" />
              <mxPoint x="340" y="360" />
            </Array>
          </mxGeometry>
        </mxCell>
        <mxCell id="3Jr1gEqklFS7zzRCALNh-16" style="edgeStyle=orthogonalEdgeStyle;rounded=0;orthogonalLoop=1;jettySize=auto;html=1;" edge="1" parent="1" source="3Jr1gEqklFS7zzRCALNh-8" target="3Jr1gEqklFS7zzRCALNh-15">
          <mxGeometry relative="1" as="geometry" />
        </mxCell>
        <mxCell id="3Jr1gEqklFS7zzRCALNh-8" value="数据格式化，&lt;br&gt;加上帧头，帧尾，&lt;br&gt;长度，校验和" style="rhombus;whiteSpace=wrap;html=1;" vertex="1" parent="1">
          <mxGeometry x="375" y="450" width="110" height="110" as="geometry" />
        </mxCell>
        <mxCell id="3Jr1gEqklFS7zzRCALNh-10" value="有数据" style="text;html=1;align=center;verticalAlign=middle;resizable=0;points=[];autosize=1;strokeColor=none;" vertex="1" parent="1">
          <mxGeometry x="445" y="410" width="50" height="20" as="geometry" />
        </mxCell>
        <mxCell id="3Jr1gEqklFS7zzRCALNh-12" style="edgeStyle=orthogonalEdgeStyle;rounded=0;orthogonalLoop=1;jettySize=auto;html=1;entryX=1;entryY=0.5;entryDx=0;entryDy=0;" edge="1" parent="1" source="3Jr1gEqklFS7zzRCALNh-11" target="3Jr1gEqklFS7zzRCALNh-8">
          <mxGeometry relative="1" as="geometry" />
        </mxCell>
        <mxCell id="3Jr1gEqklFS7zzRCALNh-11" value="format.json" style="shape=process;whiteSpace=wrap;html=1;backgroundOutline=1;" vertex="1" parent="1">
          <mxGeometry x="560" y="475" width="120" height="60" as="geometry" />
        </mxCell>
        <mxCell id="3Jr1gEqklFS7zzRCALNh-17" style="edgeStyle=orthogonalEdgeStyle;rounded=0;orthogonalLoop=1;jettySize=auto;html=1;entryX=0;entryY=0.25;entryDx=0;entryDy=0;" edge="1" parent="1" source="3Jr1gEqklFS7zzRCALNh-15" target="3Jr1gEqklFS7zzRCALNh-4">
          <mxGeometry relative="1" as="geometry">
            <Array as="points">
              <mxPoint x="320" y="650" />
              <mxPoint x="320" y="345" />
            </Array>
          </mxGeometry>
        </mxCell>
        <mxCell id="3Jr1gEqklFS7zzRCALNh-15" value="根据port_id&lt;br&gt;写入相应的port" style="rounded=0;whiteSpace=wrap;html=1;" vertex="1" parent="1">
          <mxGeometry x="370" y="620" width="120" height="60" as="geometry" />
        </mxCell>
      </root>
    </mxGraphModel>
  </diagram>
</mxfile>
